<svg width="46" height="53" viewBox="0 0 46 53" fill="none" xmlns="http://www.w3.org/2000/svg">
<path d="M18.1475 22.5C19.6475 22.5 20.8625 23.625 20.835 25C20.835 26.375 19.65 27.5 18.1475 27.5C16.6725 27.5 15.4575 26.375 15.4575 25C15.4575 23.625 16.645 22.5 18.1475 22.5ZM27.7675 22.5C29.27 22.5 30.4575 23.625 30.4575 25C30.4575 26.375 29.27 27.5 27.7675 27.5C26.2925 27.5 25.08 26.375 25.08 25C25.08 23.625 26.265 22.5 27.7675 22.5ZM40.185 0C43.0925 0 45.4575 2.415 45.4575 5.4075V52.5L39.93 47.5125L36.8175 44.5725L33.525 41.4475L34.89 46.305H5.73002C2.82252 46.305 0.45752 43.89 0.45752 40.8975V5.4075C0.45752 2.415 2.82252 0 5.73002 0H40.1825H40.185ZM30.26 34.2825C35.9425 34.1 38.13 30.2925 38.13 30.2925C38.13 21.84 34.425 14.9875 34.425 14.9875C30.725 12.155 27.2 12.2325 27.2 12.2325L26.84 12.6525C31.2125 14.0175 33.2425 15.9875 33.2425 15.9875C30.8552 14.6425 28.2241 13.7858 25.5025 13.4675C23.7761 13.2725 22.0323 13.2893 20.31 13.5175C20.155 13.5175 20.025 13.545 19.8725 13.57C18.9725 13.65 16.785 13.99 14.035 15.225C13.085 15.67 12.5175 15.9875 12.5175 15.9875C12.5175 15.9875 14.6525 13.9125 19.28 12.5475L19.0225 12.2325C19.0225 12.2325 15.5 12.155 11.7975 14.99C11.7975 14.99 8.09502 21.84 8.09502 30.2925C8.09502 30.2925 10.255 34.0975 15.9375 34.2825C15.9375 34.2825 16.8875 33.1025 17.6625 32.105C14.395 31.105 13.1625 29.005 13.1625 29.005C13.1625 29.005 13.4175 29.19 13.88 29.4525C13.905 29.4775 13.93 29.505 13.9825 29.53C14.06 29.585 14.1375 29.61 14.215 29.6625C14.8575 30.03 15.5 30.3175 16.09 30.555C17.145 30.975 18.405 31.395 19.8725 31.685C22.0708 32.1159 24.331 32.1244 26.5325 31.71C27.8148 31.4811 29.0659 31.1027 30.26 30.5825C31.16 30.24 32.1625 29.74 33.2175 29.0325C33.2175 29.0325 31.9325 31.185 28.5625 32.1575C29.335 33.155 30.2625 34.2825 30.2625 34.2825H30.26Z" fill="#E4E4E4"/>
</svg>
